<svg xmlns="http://www.w3.org/2000/svg" xmlns:xlink="http://www.w3.org/1999/xlink" width="106px" height="106px" viewBox="0 0 106 106"><title>编组 11</title><desc>Created with Sketch.</desc><g id="&#x5236;&#x4F5C;&#x6863;&#x6848;" stroke="none" stroke-width="1" fill="none" fill-rule="evenodd"><g id="&#x9996;&#x9875;&#xFF08;&#x7B2C;&#x4E00;&#x7248;&#xFF09;EN" transform="translate(-667.000000, -1246.000000)"><g id="&#x7F16;&#x7EC4;-11" transform="translate(667.000000, 1246.000000)"><circle id="&#x692D;&#x5706;&#x5F62;&#x590D;&#x5236;-4" stroke="#2D2D64" stroke-width="3.4654362" cx="53.072" cy="53.072" r="51.072"></circle><g id="&#x7F16;&#x7EC4;-7" transform="translate(20.630038, 21.272453)"><g id="&#x7F16;&#x7EC4;-5"><path d="M32.3284566,64.8769051 C27.9542857,64.8769051 23.7182651,64.0193304 19.743337,62.3248277 C15.8873338,60.6864909 12.4332358,58.3510102 9.46814015,55.375718 C6.49327554,52.3906233 4.16154527,48.9215675 2.54290128,45.0651522 C0.856923067,41.062445 2.13162821e-14,36.8113535 2.13162821e-14,32.4384526 C2.13162821e-14,28.049693 0.854548741,23.799538 2.54309575,19.8112916 C4.17572298,15.9422529 6.50310407,12.4764195 9.46814015,9.50118711 C12.4430649,6.51603207 15.9003746,4.17618681 19.7437981,2.55188167 C23.7331384,0.859956959 27.97009,-1.70530257e-13 32.3284566,-1.70530257e-13 C36.7026275,-1.70530257e-13 40.938648,0.857574691 44.9135762,2.55207743 C48.7695794,4.19041418 52.2236774,6.52589495 55.188773,9.50118711 C58.1636376,12.4862818 60.4953679,15.9553376 62.1140119,19.8117529 C63.7999901,23.8144601 64.6569132,28.0655516 64.6569132,32.4384526 C64.6569132,36.8272121 63.8023644,41.0773671 62.1138174,45.0656135 C60.4811902,48.9346522 58.1538091,52.4004856 55.188773,55.375718 C52.2138483,58.360873 48.7565386,60.7007183 44.9144265,62.3244658 C40.938648,64.0193304 36.7026275,64.8769051 32.3284566,64.8769051 Z M32.3284566,2.73417722 C16.0052852,2.73417722 2.72715251,16.0579714 2.72715251,32.4384526 C2.72715251,48.8189337 16.0052852,62.1427279 32.3284566,62.1427279 C48.651628,62.1427279 61.9297607,48.8189337 61.9297607,32.4384526 C61.9297607,16.0579714 48.651628,2.73417722 32.3284566,2.73417722 Z" id="&#x5F62;&#x72B6;" stroke="#2D2C63" stroke-width="0.8" fill="#2D2D64" fill-rule="nonzero"></path><path d="M3.60863598,12.5459788 C3.60863598,15.4099314 5.92237168,17.7316237 8.7765093,17.7316237 C11.6306469,17.7316237 13.9443826,15.4099314 13.9443826,12.5459788 C13.9443826,9.6820262 11.6306469,7.36033391 8.7765093,7.36033391 C5.92237168,7.36033391 3.60863598,9.6820262 3.60863598,12.5459788 L3.60863598,12.5459788 Z" id="&#x8DEF;&#x5F84;" stroke="#2D2D64" stroke-width="3" fill="#F2F6F9"></path><path d="M54.5248961,21.4720888 C54.5248961,24.3360414 56.8386318,26.6577337 59.6927694,26.6577337 C62.5469071,26.6577337 64.8606428,24.3360414 64.8606428,21.4720888 C64.8606428,18.6081362 62.5469071,16.2864439 59.6927694,16.2864439 C56.8386318,16.2864439 54.5248961,18.6081362 54.5248961,21.4720888 L54.5248961,21.4720888 Z" id="&#x8DEF;&#x5F84;" stroke="#2D2D64" stroke-width="3" fill="#F2F6F9"></path><path d="M30.8035104,28.2660151 C27.8530558,28.2660151 25.4581301,30.6691766 25.4581301,33.6286006 C25.4581301,36.5880245 27.8530558,38.991186 30.8035104,38.991186 C33.7539649,38.991186 36.1488907,36.5880245 36.1488907,33.6286006 C36.1488907,30.6691766 33.7539649,28.2660151 30.8035104,28.2660151 Z" id="&#x8DEF;&#x5F84;" stroke="#2D2D64" stroke-width="3" fill="#F2F6F9"></path><polygon id="&#x8DEF;&#x5F84;" stroke="#2D2C63" stroke-width="0.8" fill="#2D2D64" fill-rule="nonzero" points="12.5806739 14.0098192 13.3512156 11.4662776 55.4407795 18.9285472 54.6702379 21.4720888"></polygon><path d="M13.344995,14.0098192 L13.2880283,17.8098429 L23.2244887,56.0982058 L26.0478146,55.965859 L56.2442753,24.4367409 L58.2098006,26.332041 L26.8289359,59.0978307 L25.0385775,57.37109 L23.0410163,56.9244387 L23.0556957,56.8583331 L20.7596199,57.4583488 L10.1647489,16.633258 L11.7050061,16.2307842 L11.4231359,15.9496198 L13.344995,14.0098192 Z M21.8630064,55.5743248 L21.9674302,55.9766997 L21.8399264,56.1944108 L21.6242206,56.0675984 L21.5195035,55.6640898 L21.8630064,55.5743248 Z M24.5333904,55.6761184 L24.8797814,55.7535708 L24.7894092,56.160545 L24.5782744,56.2949883 L24.4432351,56.0821071 L24.5333904,55.6761184 Z M54.3621394,23.2568155 L54.5925759,23.3503621 L54.4982495,23.5836081 L54.1149588,23.7464054 L53.9773584,23.4202451 L54.3621394,23.2568155 Z" id="&#x5F62;&#x72B6;" stroke="#2D2C63" stroke-width="0.8" fill="#2D2D64" fill-rule="nonzero"></path></g><path d="M19.1500501,60.4751638 C19.1500501,62.8527848 21.0745592,64.7802275 23.4485616,64.7802275 C25.8225639,64.7802275 27.747073,62.8527848 27.747073,60.4751638 C27.747073,58.0975428 25.8225639,56.1701001 23.4485616,56.1701001 C21.0745592,56.1701001 19.1500501,58.0975428 19.1500501,60.4751638 L19.1500501,60.4751638 Z" id="&#x8DEF;&#x5F84;&#x590D;&#x5236;" stroke="#2D2D64" stroke-width="3" fill="#F2F6F9"></path></g></g></g></g></svg>