<svg xmlns="http://www.w3.org/2000/svg" xmlns:xlink="http://www.w3.org/1999/xlink" width="106px" height="106px" viewBox="0 0 106 106"><title>编组 17</title><desc>Created with Sketch.</desc><g id="&#x5236;&#x4F5C;&#x6863;&#x6848;" stroke="none" stroke-width="1" fill="none" fill-rule="evenodd"><g id="&#x9996;&#x9875;&#xFF08;&#x7B2C;&#x4E00;&#x7248;&#xFF09;EN" transform="translate(-1041.000000, -1520.000000)"><g id="&#x7F16;&#x7EC4;-17" transform="translate(1041.000000, 1520.000000)"><g id="&#x7F16;&#x7EC4;-22&#x5907;&#x4EFD;" transform="translate(2.000000, 2.000000)" stroke="#2D2D64" stroke-width="3.4654362"><g id="&#x7F16;&#x7EC4;-39"><ellipse id="&#x692D;&#x5706;&#x5F62;&#x590D;&#x5236;-13" cx="51.072" cy="50.7975019" rx="51.072" ry="50.7528"></ellipse></g></g><g id="kefu" transform="translate(21.000000, 22.000000)"><path d="M22.8388672,29.289133 C22.8388672,31.8830994 25.0005386,34.0447054 27.5944396,34.0447054 C30.1884715,34.0447054 32.3500121,31.8830994 32.3500121,29.2891984 C32.3500121,26.6951665 30.1884061,24.5335605 27.5945051,24.5335605 C24.8924976,24.5335605 22.8388672,26.6951665 22.8388672,29.289133 Z M44.1308694,24.5335605 C41.536903,24.5335605 39.3753624,26.6951665 39.3753624,29.289133 C39.3753624,31.8830994 41.536903,34.0447054 44.1308694,34.0447054 C46.7248359,34.0447054 48.8864419,31.8830994 48.8864419,29.2891984 C48.8864419,26.6951665 46.7248359,24.5335605 44.1309349,24.5335605 L44.1308694,24.5335605 Z M62.3966102,25.5063225 L62.0723562,25.5063225 C58.8299472,14.2658666 48.6702944,9.18604019 44.347017,7.13254067 C44.1308694,7.0244342 44.0228284,6.91632772 43.8066155,6.80828669 C44.347017,6.26788519 44.9955249,5.51127074 45.2116724,4.53857422 C45.4278854,3.45777122 45.1036314,2.37696823 44.347017,1.62035378 C43.698509,0.863804768 42.2935174,-0.64935869 33.971282,0.431509745 C25.8651941,1.29609979 6.73479784,7.78104865 2.95198736,25.5063225 L2.51962689,25.5063225 C1.11463535,25.5063225 0.0337669137,26.5871255 0.0337669137,27.9921825 L0.0337669137,35.8821229 C0.0337669137,37.2871144 1.11456991,38.3679828 2.51962689,38.3679828 L2.95198736,38.3679828 C5.76210132,52.2023397 17.4348522,58.2548627 28.6753081,59.4437721 L28.6753081,59.5518786 C28.6753081,60.9568702 29.7561111,62.0377386 31.161168,62.0377386 L41.3207555,62.0377386 C42.7258125,62.0377386 43.8066155,60.9569356 43.8066155,59.5518786 L43.8066155,53.6073967 C43.8066155,52.2024052 42.7258125,51.1215367 41.3207555,51.1215367 L31.161168,51.1215367 C29.7561111,51.1215367 28.6753081,52.2023397 28.6753081,53.6073967 L28.6753081,53.9316507 C22.1904247,53.1751017 11.2742228,49.9326273 8.35600234,38.0437289 C9.11261678,37.6113684 9.76105932,36.7467129 9.76105932,35.7740164 L9.76105932,27.884076 C9.76105932,26.9113795 9.22065782,26.154765 8.46404337,25.72247 C12.7873208,8.8617862 34.403577,5.72748369 34.6197245,5.61937721 C36.0247815,5.4032297 37.1055845,5.4032297 38.0783465,5.29512323 C37.862199,5.83552473 37.7540925,6.37592622 37.7540925,7.0244342 C37.7540925,7.88908968 38.0783465,9.18604019 39.4834035,10.3749497 C40.023805,10.9153512 40.7804194,11.2396051 42.0773699,11.8881131 C45.8601804,13.7254651 53.6420143,17.6163821 56.5602348,25.7224046 C55.8036203,26.1546996 55.2632188,26.911314 55.2632188,27.8840106 L55.2632188,35.773951 C55.2632188,37.1789425 56.3440218,38.2598109 57.7490788,38.2598109 L62.5046513,38.2598109 C63.9097082,38.2598109 64.9905112,37.1790079 64.9905112,35.773951 L64.9905112,27.884076 C64.8824702,26.58706 63.8016672,25.5063225 62.3966102,25.5063225 L62.3966102,25.5063225 Z" id="&#x5F62;&#x72B6;" stroke="#F2F6F9" stroke-width="1.4" fill="#2D2D64" fill-rule="nonzero"></path><rect id="&#x77E9;&#x5F62;" stroke="#2D2D64" stroke-width="3.6" fill="#F2F6F9" x="0" y="26" width="9" height="12" rx="3"></rect><rect id="&#x77E9;&#x5F62;&#x5907;&#x4EFD;" stroke="#2D2D64" stroke-width="3.6" fill="#F2F6F9" x="55" y="26" width="9" height="12" rx="3"></rect><rect id="&#x77E9;&#x5F62;&#x5907;&#x4EFD;-6" stroke="#2D2D64" stroke-width="3.6" fill="#F2F6F9" transform="translate(36.000000, 56.500000) rotate(-270.000000) translate(-36.000000, -56.500000) " x="31.5" y="50" width="9" height="13" rx="3"></rect></g></g></g></g></svg>