<svg xmlns="http://www.w3.org/2000/svg" xmlns:xlink="http://www.w3.org/1999/xlink" width="106px" height="106px" viewBox="0 0 106 106"><title>编组 14</title><desc>Created with Sketch.</desc><g id="&#x5236;&#x4F5C;&#x6863;&#x6848;" stroke="none" stroke-width="1" fill="none" fill-rule="evenodd"><g id="&#x9996;&#x9875;&#xFF08;&#x7B2C;&#x4E00;&#x7248;&#xFF09;EN" transform="translate(-1041.000000, -1246.000000)" stroke="#2D2D64" stroke-width="3.4654362"><g id="&#x7F16;&#x7EC4;-14" transform="translate(1041.000000, 1246.000000)"><circle id="&#x692D;&#x5706;&#x5F62;&#x590D;&#x5236;-13" cx="53.072" cy="53.072" r="51.072"></circle><g id="&#x7F16;&#x7EC4;-10" transform="translate(30.266264, 30.266264)"><path d="M40.4721509,0 L5.78173585,0 C2.60178113,0 0,2.60178113 0,5.78173585 L0,40.4721509 C0,43.6521057 2.60178113,46.2538868 5.78173585,46.2538868 L40.4721509,46.2538868 C43.6521057,46.2538868 46.2538868,43.6521057 46.2538868,40.4721509 L46.2538868,5.78173585 C46.2538868,2.60178113 43.6521057,0 40.4721509,0 Z" id="&#x8DEF;&#x5F84;"></path><path d="M12.1031004,33.4569781 C10.1758551,33.4569781 8.63405887,31.9151819 8.63405887,29.9879366 C8.63405887,28.0606913 10.1758551,26.5188951 12.1031004,26.5188951 C14.0303457,26.5188951 15.5721419,28.0606913 15.5721419,29.9879366 C15.5721419,31.9151819 14.0303457,33.4569781 12.1031004,33.4569781 Z" id="&#x8DEF;&#x5F84;"></path><polyline id="&#x8DEF;&#x5F84;-107" points="8.03938516 14.1870376 11.6965029 17.5550429 18.0393852 11.3536363"></polyline><line x1="26.5188951" y1="14.3387049" x2="39.4699834" y2="14.3387049" id="&#x8DEF;&#x5F84;-108"></line><line x1="26.5188951" y1="30.2770234" x2="39.4699834" y2="30.2770234" id="&#x8DEF;&#x5F84;-108&#x590D;&#x5236;"></line></g></g></g></g></svg>