<svg xmlns="http://www.w3.org/2000/svg" xmlns:xlink="http://www.w3.org/1999/xlink" width="106px" height="106px" viewBox="0 0 106 106"><title>编组 16</title><desc>Created with Sketch.</desc><g id="&#x5236;&#x4F5C;&#x6863;&#x6848;" stroke="none" stroke-width="1" fill="none" fill-rule="evenodd"><g id="&#x9996;&#x9875;&#xFF08;&#x7B2C;&#x4E00;&#x7248;&#xFF09;EN" transform="translate(-293.000000, -1246.000000)"><g id="&#x7F16;&#x7EC4;-16" transform="translate(293.000000, 1246.000000)"><g id="&#x7F16;&#x7EC4;-9&#x590D;&#x5236;-2" transform="translate(2.000000, 2.000000)" stroke="#2D2D64" stroke-width="3.4654362"><circle id="&#x692D;&#x5706;&#x5F62;&#x590D;&#x5236;-8" cx="51.072" cy="51.072" r="51.072"></circle><g id="&#x7F16;&#x7EC4;-53" transform="translate(23.769358, 43.842113)"><path d="M0.984015812,18.2135555 L16.0801351,18.2135555 C16.6236224,18.2135555 17.0641509,18.728519 17.0641509,19.3638378 L17.0641509,30.0517958 C17.0641509,30.3568697 16.9604782,30.6494485 16.7759394,30.8651683 C16.5914006,31.0808881 16.3411124,31.2020782 16.0801351,31.2020782 L0.984015812,31.2020782 C0.723038583,31.2020782 0.472750302,31.0808881 0.288211539,30.8651683 C0.103672775,30.6494485 0,30.3568697 0,30.0517958 L0,19.3638378 C0,18.728519 0.440528532,18.2135555 0.984015812,18.2135555 Z" id="&#x8DEF;&#x5F84;"></path><path d="M33.7858421,8.51606195 C34.3392109,8.51606195 34.787749,9.03102712 34.787749,9.66634599 L34.787749,30.0498228 C34.787749,30.6851062 34.33918,31.2001052 33.7858421,31.2001052 L18.4152492,31.2001052 C17.8619113,31.2001052 17.4133408,30.6851062 17.4133408,30.0498228 L17.4133408,9.66634599 C17.4128851,9.36111154 17.518296,9.06822765 17.7062892,8.85239397 C17.8942824,8.6365603 18.1493871,8.51553875 18.4152492,8.51606195 L33.7858421,8.51606195 Z" id="&#x8DEF;&#x5F84;"></path><path d="M53.3710674,0.118805165 C53.9979087,0.118805165 54.5060007,0.633768627 54.5060007,1.2690875 L54.5060007,30.0498228 C54.5060007,30.6851062 53.9978737,31.2001052 53.3710674,31.2001052 L35.9596716,31.2001052 C35.6586686,31.2001052 35.3699938,31.0789151 35.1571525,30.8631953 C34.9443112,30.6474755 34.8247382,30.3548967 34.8247382,30.0498228 L34.8247382,1.2690875 C34.8247382,0.633768627 35.3328302,0.118805165 35.9596716,0.118805165 L53.3710674,0.118805165 Z" id="&#x8DEF;&#x5F84;"></path></g></g><circle id="&#x692D;&#x5706;&#x5F62;" stroke="#979797" fill="#D8D8D8" cx="70.5" cy="30.5" r="2.5"></circle><g id="ren-" transform="translate(63.413310, 25.921397)" fill="#2D2D64" fill-rule="nonzero" stroke="#2D2D64"><g id="&#x7F16;&#x7EC4;-9" transform="translate(0.001329, 0.000190)"><path d="M6.98784722,9.11458333 C4.4754503,9.11458333 2.43055556,7.06968859 2.43055556,4.55729167 C2.43055556,2.04489475 4.4754503,-1.5187851e-13 6.98784722,-1.5187851e-13 C9.50024414,-1.5187851e-13 11.5451389,2.04489475 11.5451389,4.55729167 C11.5451389,7.06968859 9.50043403,9.11458333 6.98784722,9.11458333 Z M6.98784722,1.82291667 C5.480523,1.82291667 4.25347222,3.04996745 4.25347222,4.55729167 C4.25347222,6.06461589 5.480523,7.29166667 6.98784722,7.29166667 C8.49517144,7.29166667 9.72222222,6.06461589 9.72222222,4.55729167 C9.72222222,3.04996745 8.49517144,1.82291667 6.98784722,1.82291667 Z" id="&#x5F62;&#x72B6;"></path><path d="M13.0642361,15.1909722 C12.5610352,15.1909722 12.1527778,14.7827148 12.1527778,14.2795139 C12.1527778,11.4312066 9.83615451,9.11458333 6.98784722,9.11458333 C4.13953993,9.11458333 1.82291667,11.4312066 1.82291667,14.2795139 C1.82291667,14.7827148 1.41465929,15.1909722 0.911458333,15.1909722 C0.408257378,15.1909722 1.76747506e-13,14.7827148 1.76747506e-13,14.2795139 C1.76747506e-13,10.425944 3.13427734,7.29166667 6.98784722,7.29166667 C10.8414171,7.29166667 13.9756944,10.425944 13.9756944,14.2795139 C13.9756944,14.7827148 13.5674371,15.1909722 13.0642361,15.1909722 Z" id="&#x8DEF;&#x5F84;"></path></g></g><g id="ren-&#x5907;&#x4EFD;" transform="translate(45.335425, 35.746136)" fill="#2D2D64" fill-rule="nonzero" stroke="#2D2D64" stroke-width="1.2"><g id="&#x7F16;&#x7EC4;-9" transform="translate(0.001063, 0.000152)"><path d="M5.59027778,7.29166667 C3.58036024,7.29166667 1.94444444,5.65575087 1.94444444,3.64583333 C1.94444444,1.6359158 3.58036024,-1.5187851e-13 5.59027778,-1.5187851e-13 C7.60019531,-1.5187851e-13 9.23611111,1.6359158 9.23611111,3.64583333 C9.23611111,5.65575087 7.60034722,7.29166667 5.59027778,7.29166667 Z M5.59027778,1.45833333 C4.3844184,1.45833333 3.40277778,2.43997396 3.40277778,3.64583333 C3.40277778,4.85169271 4.3844184,5.83333333 5.59027778,5.83333333 C6.79613715,5.83333333 7.77777778,4.85169271 7.77777778,3.64583333 C7.77777778,2.43997396 6.79613715,1.45833333 5.59027778,1.45833333 Z" id="&#x5F62;&#x72B6;"></path><path d="M10.4513889,12.1527778 C10.0488281,12.1527778 9.72222222,11.8261719 9.72222222,11.4236111 C9.72222222,9.14496528 7.86892361,7.29166667 5.59027778,7.29166667 C3.31163194,7.29166667 1.45833333,9.14496528 1.45833333,11.4236111 C1.45833333,11.8261719 1.13172743,12.1527778 0.729166667,12.1527778 C0.326605903,12.1527778 1.76747506e-13,11.8261719 1.76747506e-13,11.4236111 C1.76747506e-13,8.34075521 2.50742188,5.83333333 5.59027778,5.83333333 C8.67313368,5.83333333 11.1805556,8.34075521 11.1805556,11.4236111 C11.1805556,11.8261719 10.8539497,12.1527778 10.4513889,12.1527778 Z" id="&#x8DEF;&#x5F84;"></path></g></g><g id="ren-&#x5907;&#x4EFD;-2" transform="translate(29.013477, 49.372565)" fill="#2D2D64" fill-rule="nonzero" stroke="#2D2D64" stroke-width="1.2"><g id="&#x7F16;&#x7EC4;-9" transform="translate(0.000877, 0.000125)"><path d="M4.61197917,6.015625 C2.9537972,6.015625 1.60416667,4.66599447 1.60416667,3.0078125 C1.60416667,1.34963053 2.9537972,-1.5187851e-13 4.61197917,-1.5187851e-13 C6.27016113,-1.5187851e-13 7.61979167,1.34963053 7.61979167,3.0078125 C7.61979167,4.66599447 6.27028646,6.015625 4.61197917,6.015625 Z M4.61197917,1.203125 C3.61714518,1.203125 2.80729167,2.01297852 2.80729167,3.0078125 C2.80729167,4.00264648 3.61714518,4.8125 4.61197917,4.8125 C5.60681315,4.8125 6.41666667,4.00264648 6.41666667,3.0078125 C6.41666667,2.01297852 5.60681315,1.203125 4.61197917,1.203125 Z" id="&#x5F62;&#x72B6;"></path><path d="M8.62239583,10.0260417 C8.2902832,10.0260417 8.02083333,9.7565918 8.02083333,9.42447917 C8.02083333,7.54459635 6.49186198,6.015625 4.61197917,6.015625 C2.73209635,6.015625 1.203125,7.54459635 1.203125,9.42447917 C1.203125,9.7565918 0.93367513,10.0260417 0.6015625,10.0260417 C0.26944987,10.0260417 1.76747506e-13,9.7565918 1.76747506e-13,9.42447917 C1.76747506e-13,6.88112305 2.06862305,4.8125 4.61197917,4.8125 C7.15533529,4.8125 9.22395833,6.88112305 9.22395833,9.42447917 C9.22395833,9.7565918 8.95450846,10.0260417 8.62239583,10.0260417 Z" id="&#x8DEF;&#x5F84;"></path></g></g></g></g></g></svg>