<svg xmlns="http://www.w3.org/2000/svg" xmlns:xlink="http://www.w3.org/1999/xlink" width="106px" height="106px" viewBox="0 0 106 106"><title>编组 18</title><desc>Created with Sketch.</desc><g id="&#x5236;&#x4F5C;&#x6863;&#x6848;" stroke="none" stroke-width="1" fill="none" fill-rule="evenodd"><g id="&#x9996;&#x9875;&#xFF08;&#x7B2C;&#x4E00;&#x7248;&#xFF09;EN" transform="translate(-667.000000, -1520.000000)"><g id="&#x7F16;&#x7EC4;-18" transform="translate(667.000000, 1520.000000)"><polygon id="&#x8DEF;&#x5F84;" fill="#2D2D64" fill-rule="nonzero" points="36.3125 44.2521731 25.09375 63.9552981 19.46875 63.9552981 30.640625 45.2677981 20.21875 45.2677981 20.875 41.2052981 36.796875 41.2052981"></polygon><polygon id="&#x8DEF;&#x5F84;" fill="#2D2D64" fill-rule="nonzero" points="44.53125 51.6740481 47.640625 47.0490481 53.203125 47.0490481 47.4375 55.5177981 50.53125 63.9552981 45.40625 63.9552981 43.625 58.9865481 40.328125 63.9552981 34.703125 63.9552981 40.765625 55.0490481 37.8125 47.0490481 42.984375 47.0490481"></polygon><path d="M67.546875,63.9552981 L52.125,63.9552981 L52.6875,60.3302981 L60.78125,52.8146731 L61.890625,51.7052981 C63.630217,49.9552893 64.4270841,48.3042642 64.28125,46.7521731 C64.1666661,45.5438337 63.5416723,44.9240482 62.40625,44.8927981 C61.6041627,44.8719647 60.924482,45.1974822 60.3671875,45.8693606 C59.809893,46.5412389 59.4635423,47.4188343 59.328125,48.5021731 L54.21875,48.5334231 C54.3020838,47.1063326 54.7343711,45.8016582 55.515625,44.6193606 C56.2968789,43.437063 57.3411393,42.5125931 58.6484375,41.8459231 C59.9557357,41.1792531 61.3489509,40.8511314 62.828125,40.8615481 C65.0468861,40.903215 66.7656189,41.5047714 67.984375,42.6662356 C69.2031311,43.8276997 69.7343758,45.3979965 69.578125,47.3771731 C69.4843745,48.5438456 69.1015659,49.6792509 68.4296875,50.7834231 C67.7578091,51.8875953 66.7812564,53.049042 65.5,54.2677981 L63.125,56.4552981 L59.59375,59.8615481 L68.1875,59.8927981 L67.546875,63.9552981 Z" id="&#x8DEF;&#x5F84;" fill="#2D2D64" fill-rule="nonzero"></path><path d="M82.25,41.1427981 L87.5625,41.2209231 L85.15625,55.0646731 L87.390625,55.0646731 L86.6875,59.1271731 L84.453125,59.1271731 L83.609375,63.9552981 L78.46875,63.9552981 L79.3125,59.1271731 L70.796875,59.1271731 L71.078125,55.6584231 L82.25,41.2521731 L82.25,41.1427981 Z M81.390625,48.0021731 L76.140625,55.0334231 L80.015625,55.0646731 L81.390625,48.0021731 Z" id="&#x5F62;&#x72B6;&#x7ED3;&#x5408;" fill="#2D2D64" fill-rule="nonzero"></path><ellipse id="&#x692D;&#x5706;&#x5F62;&#x590D;&#x5236;-13" stroke="#2D2D64" stroke-width="3.4654362" cx="53.072" cy="52.7528" rx="51.072" ry="50.7528"></ellipse></g></g></g></svg>