<svg xmlns="http://www.w3.org/2000/svg" xmlns:xlink="http://www.w3.org/1999/xlink" width="106px" height="106px" viewBox="0 0 106 106"><title>编组 19</title><desc>Created with Sketch.</desc><g id="&#x5236;&#x4F5C;&#x6863;&#x6848;" stroke="none" stroke-width="1" fill="none" fill-rule="evenodd"><g id="&#x9996;&#x9875;&#xFF08;&#x7B2C;&#x4E00;&#x7248;&#xFF09;EN" transform="translate(-290.000000, -1519.000000)"><g id="&#x7F16;&#x7EC4;-19" transform="translate(290.000000, 1519.000000)"><path d="M25.9778179,37.8545919 C26.0650982,37.5699362 26.2243329,37.3126186 26.440126,37.1075187 C27.0669443,36.2124026 27.8787903,35.4624858 28.8206672,34.9085699 L49.2752092,23.0037077 C51.6159593,21.6240007 54.5207496,21.6226797 56.8627532,23.0002571 L77.3302329,34.9111579 C78.2709695,35.4650054 79.0814187,36.2149906 79.7064616,37.1101067 C79.9204299,37.3140089 80.0784331,37.569474 80.1653195,37.8520039 C80.7805466,38.9869838 81.1030827,40.2574959 81.104,41.5485499 L81.104,52.9927456 C81.104,53.0128731 81.104,53.0330051 81.104,53.0531326 L81.104,65.3651755 C81.1011483,68.0981178 79.6659234,70.6274697 77.3233328,72.0042928 L56.8687908,83.9082923 C54.5280407,85.2879993 51.6232504,85.2893203 49.2812468,83.9117429 L28.813767,72.0008421 C26.4780766,70.6274696 25.0428517,68.0981177 25.04,65.3634501 L25.04,53.0531326 C25.04,53.0330051 25.04,53.0128731 25.04,52.9927456 L25.04,41.5468246 C25.0410062,40.2572594 25.363245,38.988233 25.9778179,37.8545919 Z" id="&#x8DEF;&#x5F84;" fill="#2D2D64" fill-rule="nonzero"></path><path d="M78.032,56.528 L68.816,62.105976 L68.816,73.424 L76.0195607,69.2008441 C77.2603694,68.4664557 78.0303243,67.0998177 78.032,65.6166907 L78.032,56.5288441 L78.032,56.528 Z" id="&#x8DEF;&#x5F84;" fill="#FFFFFF" fill-rule="nonzero"></path><path d="M28.88,56.528 L28.88,65.6158465 C28.8816756,67.0998177 29.6507927,68.4656115 30.8865746,69.1974676 L38.096,73.424 L38.096,62.1068202 L28.88,56.5288441 L28.88,56.528 Z" id="&#x8DEF;&#x5F84;" fill="#FFFFFF" fill-rule="nonzero"></path><path d="M43.472,30.8782217 L53.456,36.56 L63.44,30.8790693 L55.5098761,26.3575467 C54.2402082,25.6236051 52.6636124,25.6249041 51.3952055,26.3609368 L43.472,30.8790693 L43.472,30.8782217 Z" id="&#x8DEF;&#x5F84;" fill="#FFFFFF" fill-rule="nonzero"></path><path d="M54.992,81.104 C55.1050264,81.0508993 55.216314,80.9926598 55.3249932,80.9301381 L64.9904906,75.3896808 L64.9904906,60.9445806 C64.9903014,60.3430635 65.3104179,59.7855283 65.8338415,59.475747 L78.032,52.2566228 L78.032,41.8351845 C78.032,41.6117714 78.0141784,41.3887037 77.9789645,41.168 L54.992,54.2162095 L54.992,81.1031435 L54.992,81.104 Z" id="&#x8DEF;&#x5F84;" fill="#FFFFFF" fill-rule="nonzero"></path><path d="M51.92,81.104 L51.92,54.2167861 L28.9330355,41.168 C28.8982582,41.3863933 28.8808695,41.6082124 28.88,41.8334573 L28.88,52.2572414 L41.0781585,59.4770673 C41.6013165,59.7866847 41.9213934,60.343814 41.9215094,60.9450129 L41.9215094,75.3898033 L51.5939623,80.9335676 C51.7009027,80.9952316 51.8095819,81.0526133 51.92,81.104 L51.92,81.104 Z" id="&#x8DEF;&#x5F84;" fill="#FFFFFF" fill-rule="nonzero"></path><path d="M75.728,38.1094989 C75.6825696,38.0801519 75.6365582,38.0517124 75.5899931,38.0241975 L66.4608322,32.72 L53.9375624,39.9835452 C53.4020678,40.2940364 52.7410696,40.2940364 52.205575,39.9835452 L39.6814428,32.72 L30.5609073,38.0216126 C30.511998,38.0501948 30.4636852,38.0797838 30.416,38.1103605 L53.0724313,51.152 L75.728,38.1094989 L75.728,38.1094989 Z" id="&#x8DEF;&#x5F84;" fill="#FFFFFF" fill-rule="nonzero"></path><circle id="&#x692D;&#x5706;&#x5F62;&#x590D;&#x5236;-11" stroke="#2D2D64" stroke-width="3.4654362" cx="53.072" cy="53.072" r="51.072"></circle></g></g></g></svg>